<?xml version="1.0" encoding="UTF-8"?>
<!DOCTYPE svg PUBLIC "-//W3C//DTD SVG 1.1//EN" "http://www.w3.org/Graphics/SVG/1.1/DTD/svg11.dtd">
<!-- Creator: CorelDRAW 2021 (64-Bit) -->
<svg xmlns="http://www.w3.org/2000/svg" xml:space="preserve" width="2.24857in" height="0.988472in" version="1.1" style="shape-rendering:geometricPrecision; text-rendering:geometricPrecision; image-rendering:optimizeQuality; fill-rule:evenodd; clip-rule:evenodd"
viewBox="0 0 2248.57 988.47"
 xmlns:xlink="http://www.w3.org/1999/xlink"
 xmlns:xodm="http://www.corel.com/coreldraw/odm/2003">
 <defs>
  <style type="text/css">
   <![CDATA[
    .fil2 {fill:#13256C}
    .fil0 {fill:#FFCC00}
    .fil3 {fill:#FFCC00}
    .fil1 {fill:#13256C;fill-rule:nonzero}
   ]]>
  </style>
 </defs>
 <g id="Layer_x0020_1">
  <metadata id="CorelCorpID_0Corel-Layer"/>
  <g id="_1905036185920">
   <g>
    <path class="fil0" d="M922.76 361.69l47.96 -25.22c-3.27,-52.97 -55.1,-126.01 -54.55,-170.16 14.41,-6.89 27.07,-12.41 48.11,-13.56 27.89,50.81 45.15,118.22 59.21,144.17 24.83,5.45 40.38,2.6 65.56,-1.1l1.8 -275.07c-0.02,-35.92 -66.95,-15.08 -91.34,-11.37 -17.74,2.7 -71.1,18.65 -88.39,26.01 -28.89,12.3 -49.51,21.13 -77.78,36.83 -29.49,16.37 -42.35,30.27 -70.79,49.48 -30.14,20.36 -49.95,29.74 -16.7,62.03l176.93 177.96z"/>
    <path class="fil0" d="M1216.37 300.58c36.39,-53.52 16.13,-77.63 55.3,-134.61 5.34,-7.78 5.6,-9.09 11.01,-15.96l47.4 13.7c-0.17,41.15 -50.95,121.9 -55,172.27l37.34 28.41c29.92,-15.38 123.14,-115.53 157.52,-150.14 55.93,-56.31 70.42,-60.57 -24.96,-120.76 -29.49,-18.61 -53.43,-32.49 -81.67,-45.17 -52.69,-23.66 -136.36,-53.51 -207.08,-45.52l-1.48 265.9c1.87,40.3 17.9,30.99 61.63,31.87z"/>
    <path class="fil0" d="M544.7 547.8l291.54 -0.3c6.49,-59.59 -24,-45.52 -61.74,-66.87 -24.44,-13.83 -64.38,-23.57 -85.68,-43.96l18.68 -43.11c58.19,0.59 101.84,55.67 160.14,56.63 17.39,-46.96 22.96,-33.42 -16.4,-70.26 -44.24,-41.41 -135.38,-145.35 -171.33,-168.26 -39.23,13.29 -76.97,100.09 -93.82,137.8 -25.98,58.11 -44.81,123.89 -41.39,198.35z"/>
    <path class="fil0" d="M1378.23 449.89c60.27,-0.87 104.71,-56.28 157.62,-55.38l23.54 41.19c-14.75,13.98 -91.81,47.13 -120.39,60.37 -25.3,11.72 -28.17,7.74 -27.28,43.06 1.59,1.09 4.11,0.32 5.19,2.62 6.06,12.85 259.06,5.56 287.36,5.01 -0.52,-116.75 -68.18,-281.29 -132.26,-334.55 -29.61,9.18 -89.99,80.81 -117.76,106.93 -81.15,76.31 -99.25,85.87 -76.02,130.75z"/>
   </g>
   <polygon class="fil1" points="231.57,986.96 312.7,986.96 312.7,974.83 245.22,974.83 245.22,942.6 303.04,942.6 303.04,930.66 245.22,930.66 245.22,870.19 310.05,870.19 310.05,858.06 231.57,858.06 "/>
   <path id="_1" class="fil1" d="M341.52 986.96l13.27 0 0 -85.11c0,-5.87 -0.76,-14.78 -0.76,-14.78 0,0 5.12,8.34 9.29,13.46l38.48 49.28 2.28 0 39.05 -49.28c4.17,-5.12 9.1,-13.46 9.1,-13.46 0,0 -0.57,8.91 -0.57,14.78l0 85.11 13.27 0 0 -130.41 -2.09 0 -59.52 74.87 -59.9 -74.87 -1.89 0 0 130.41z"/>
   <polygon id="_2" class="fil1" points="500.17,986.96 581.3,986.96 581.3,974.83 513.81,974.83 513.81,942.6 571.63,942.6 571.63,930.66 513.81,930.66 513.81,870.19 578.64,870.19 578.64,858.06 500.17,858.06 "/>
   <path id="_3" class="fil1" d="M610.11 986.96l31.28 0c43.22,0 69.75,-25.4 69.75,-64.45 0,-39.05 -26.72,-64.44 -69.75,-64.44l-31.28 0 0 128.89zm13.65 -12.32l0 -104.26 16.68 0c38.1,0 56.3,21.42 56.3,52.13 0,30.71 -18.2,52.13 -56.3,52.13l-16.68 0z"/>
   <polygon id="_4" class="fil1" points="739.57,986.96 753.41,986.96 753.41,858.06 739.57,858.06 "/>
   <path id="_5" class="fil1" d="M848 988.47c36.77,0 66.34,-27.11 66.34,-65.96 0,-38.86 -29.57,-65.96 -66.34,-65.96 -36.58,0 -66.15,27.1 -66.15,65.96 0,38.86 29.57,65.96 66.15,65.96zm0 -12.32c-29.95,0 -51.94,-22.94 -51.94,-53.65 0,-30.7 21.99,-53.64 51.94,-53.64 30.14,0 52.13,22.94 52.13,53.64 0,30.71 -21.99,53.65 -52.13,53.65z"/>
   <path id="_6" class="fil1" d="M1039.82 988.28l2.28 0 0 -130.22 -12.7 0 0 87c0,5.5 0.94,14.59 0.94,14.59 0,0 -5.31,-7.58 -8.91,-11.94l-76.96 -90.98 -2.27 0 0 130.22 12.89 0 0 -87c0,-5.5 -1.14,-14.59 -1.14,-14.59 0,0 5.31,7.58 8.91,11.94l76.96 90.98z"/>
   <path id="_7" class="fil1" d="M1137.44 988.47c24.26,0 41.51,-8.53 50.99,-17.82l0 -44.92 -51.18 0 0 12.13 38.29 0 0 26.54c-7.96,6.44 -20.47,11.75 -38.1,11.75 -31.28,0 -53.26,-22.94 -53.26,-53.65 0,-30.7 21.8,-53.64 52.13,-53.64 15.92,0 27.3,4.93 35.63,13.65l9.29 -9.29c-10.62,-11.37 -26.35,-16.68 -44.93,-16.68 -37.53,0 -66.34,27.1 -66.34,65.96 0,38.86 29,65.96 67.48,65.96z"/>
   <path id="_8" class="fil1" d="M1252.5 986.96l13.46 0 8.53 -21.61 65.21 0 8.72 21.61 14.41 0 -54.59 -130.22 -2.27 0 -53.46 130.22zm26.73 -33.36l22.75 -57.24c2.46,-6.06 5.11,-15.35 5.11,-15.35 0,0 2.46,9.29 4.93,15.35l22.75 57.24 -55.54 0z"/>
   <path id="_9" class="fil1" d="M1399.97 936.72c0.38,-4.17 1.14,-11.56 1.14,-17.63l0 -61.04 -13.65 0 0 128.89 13.65 0 0 -37.91 15.54 -18.77 44.93 56.68 16.87 0 -52.89 -66.72 47.77 -62.17 -15.35 0 -48.72 62.74c-2.46,3.22 -6.44,10.43 -9.29,15.92z"/>
   <path id="_10" class="fil1" d="M1502.52 986.96l13.65 0 0 -32.04 15.54 0c35.26,0 53.26,-19.9 53.26,-48.33 0,-29 -18.01,-48.52 -53.26,-48.52l-29.19 0 0 128.89zm13.65 -43.98l0 -72.79 14.78 0c29,0 39.81,15.17 39.81,36.39 0,21.23 -10.8,36.39 -39.81,36.39l-14.78 0z"/>
   <path id="_11" class="fil1" d="M1591.23 986.96l13.46 0 8.53 -21.61 65.21 0 8.72 21.61 14.41 0 -54.59 -130.22 -2.27 0 -53.46 130.22zm26.73 -33.36l22.75 -57.24c2.46,-6.06 5.11,-15.35 5.11,-15.35 0,0 2.46,9.29 4.93,15.35l22.75 57.24 -55.54 0z"/>
   <path id="_12" class="fil1" d="M1726.19 986.96l48.33 0c27.48,0 40.75,-16.49 40.75,-37.91 0,-17.06 -9.85,-29.76 -26.54,-33.74 10.99,-3.6 16.68,-12.89 16.68,-25.59 0,-17.44 -11.37,-31.65 -35.45,-31.65l-43.78 0 0 128.89zm13.65 -76.2l0 -40.56 29.19 0c16.49,0 22.74,8.53 22.74,20.28 0,11.75 -5.87,20.28 -20.85,20.28l-31.09 0zm0 64.07l0 -52.32 32.98 0c19.72,0 28.63,11 28.63,26.16 0,14.97 -8.15,26.16 -27.87,26.16l-33.74 0z"/>
   <polygon id="_13" class="fil1" points="1842.2,986.96 1856.04,986.96 1856.04,858.06 1842.2,858.06 "/>
   <path id="_14" class="fil1" d="M1950.62 988.47c36.77,0 66.34,-27.11 66.34,-65.96 0,-38.86 -29.57,-65.96 -66.34,-65.96 -36.58,0 -66.15,27.1 -66.15,65.96 0,38.86 29.57,65.96 66.15,65.96zm0 -12.32c-29.95,0 -51.94,-22.94 -51.94,-53.65 0,-30.7 21.99,-53.64 51.94,-53.64 30.14,0 52.13,22.94 52.13,53.64 0,30.71 -21.99,53.65 -52.13,53.65z"/>
   <g>
    <path class="fil2" d="M-0 797.89l438.45 -61.89c157.23,-22.32 301.57,-26.48 465.31,-35.65 -3.9,-43.49 -5.21,-70.21 -24.11,-107.67 -228.79,23.02 -693.29,87.22 -879.65,205.2z"/>
    <path class="fil2" d="M2248.57 797.89l-438.45 -61.89c-157.23,-22.32 -301.57,-26.48 -465.31,-35.65 3.9,-43.49 5.21,-70.21 24.11,-107.67 228.79,23.02 693.29,87.22 879.65,205.2z"/>
   </g>
   <circle class="fil3" cx="1124.28" cy="563.14" r="199.29"/>
  </g>
 </g>
</svg>
